<svg xmlns="http://www.w3.org/2000/svg" viewBox="0 0 32 32">
  <!-- 귀 -->
  <polygon points="4,12 8,2 14,10" fill="#22d3ee"/>
  <polygon points="28,12 24,2 18,10" fill="#22d3ee"/>
  <polygon points="6,11 9,4 13,10" fill="#0a0a0c"/>
  <polygon points="26,11 23,4 19,10" fill="#0a0a0c"/>
  <!-- 얼굴 -->
  <ellipse cx="16" cy="18" rx="13" ry="12" fill="#0a0a0c" stroke="#22d3ee" stroke-width="1.5"/>
  <!-- 눈 -->
  <ellipse cx="11" cy="16" rx="1.8" ry="2.2" fill="#22d3ee"/>
  <ellipse cx="21" cy="16" rx="1.8" ry="2.2" fill="#22d3ee"/>
  <!-- 코 -->
  <polygon points="16,20 14.5,22 17.5,22" fill="#22d3ee"/>
  <!-- 입 -->
  <path d="M14.5,22 Q16,24 17.5,22" fill="none" stroke="#22d3ee" stroke-width="0.8"/>
  <!-- 수염 -->
  <line x1="3" y1="19" x2="10" y2="20" stroke="#22d3ee" stroke-width="0.7"/>
  <line x1="3" y1="22" x2="10" y2="22" stroke="#22d3ee" stroke-width="0.7"/>
  <line x1="22" y1="20" x2="29" y2="19" stroke="#22d3ee" stroke-width="0.7"/>
  <line x1="22" y1="22" x2="29" y2="22" stroke="#22d3ee" stroke-width="0.7"/>
</svg>
